HIERARCHY
ROOT Hips
{
	OFFSET -0.001795 -0.223333 0.028219
	CHANNELS 6 Xposition Yposition Zposition Zrotation Yrotation Xrotation
	JOINT LeftUpLeg
	{
		OFFSET 0.069520 -0.091406 -0.006815
		CHANNELS 3 Zrotation Yrotation Xrotation
		JOINT LeftLeg
		{
			OFFSET 0.034277 -0.375199 -0.004496
			CHANNELS 3 Zrotation Yrotation Xrotation
			JOINT LeftFoot
			{
				OFFSET -0.013596 -0.397961 -0.043693
				CHANNELS 3 Zrotation Yrotation Xrotation
				JOINT LeftToe
				{
					OFFSET 0.026358 -0.055791 0.119288
					CHANNELS 3 Zrotation Yrotation Xrotation
					End Site
					{
						OFFSET 0.000000 0.000000 0.000000
					}
				}
			}
		}
	}
	JOINT RightUpLeg
	{
		OFFSET -0.067670 -0.090522 -0.004320
		CHANNELS 3 Zrotation Yrotation Xrotation
		JOINT RightLeg
		{
			OFFSET -0.038290 -0.382569 -0.008850
			CHANNELS 3 Zrotation Yrotation Xrotation
			JOINT RightFoot
			{
				OFFSET 0.015774 -0.398415 -0.042312
				CHANNELS 3 Zrotation Yrotation Xrotation
				JOINT RightToe
				{
					OFFSET -0.025372 -0.048144 0.123348
					CHANNELS 3 Zrotation Yrotation Xrotation
					End Site
					{
						OFFSET 0.000000 0.000000 0.000000
					}
				}
			}
		}
	}
	JOINT Spine
	{
		OFFSET -0.002533 0.108963 -0.026696
		CHANNELS 3 Zrotation Yrotation Xrotation
		JOINT Spine1
		{
			OFFSET 0.005487 0.135180 0.001092
			CHANNELS 3 Zrotation Yrotation Xrotation
			JOINT Spine2
			{
				OFFSET 0.001457 0.052922 0.025425
				CHANNELS 3 Zrotation Yrotation Xrotation
				JOINT Neck
				{
					OFFSET -0.002778 0.213870 -0.042857
					CHANNELS 3 Zrotation Yrotation Xrotation
					JOINT Head
					{
						OFFSET 0.005152 0.064970 0.051349
						CHANNELS 3 Zrotation Yrotation Xrotation
						End Site
						{
							OFFSET 0.000000 0.000000 0.000000
						}
					}
				}
				JOINT LeftShoulder
				{
					OFFSET 0.078845 0.121749 -0.034090
					CHANNELS 3 Zrotation Yrotation Xrotation
					JOINT LeftArm
					{
						OFFSET 0.090977 0.030469 -0.008868
						CHANNELS 3 Zrotation Yrotation Xrotation
						JOINT LeftForeArm
						{
							OFFSET 0.259612 -0.012772 -0.027456
							CHANNELS 3 Zrotation Yrotation Xrotation
							JOINT LeftHand
							{
								OFFSET 0.249234 0.008986 -0.001171
								CHANNELS 3 Zrotation Yrotation Xrotation
								End Site
								{
									OFFSET 0.000000 0.000000 0.000000
								}
							}
						}
					}
				}
				JOINT RightShoulder
				{
					OFFSET -0.081759 0.118833 -0.038615
					CHANNELS 3 Zrotation Yrotation Xrotation
					JOINT RightArm
					{
						OFFSET -0.096012 0.032551 -0.009143
						CHANNELS 3 Zrotation Yrotation Xrotation
						JOINT RightForeArm
						{
							OFFSET -0.253742 -0.013329 -0.021401
							CHANNELS 3 Zrotation Yrotation Xrotation
							JOINT RightHand
							{
								OFFSET -0.255298 0.007772 -0.005559
								CHANNELS 3 Zrotation Yrotation Xrotation
								End Site
								{
									OFFSET 0.000000 0.000000 0.000000
								}
							}
						}
					}
				}
			}
		}
	}
}
MOTION
Frames: 5
Frame Time: 0.050000
-0.134170 1.048127 -0.924617 -8.501537 16.168138 1.068116 6.794780 -0.397315 0.714806 -5.773355 0.301622 -3.467166 7.710878 18.202666 15.630100 0.000000 0.000000 0.000000 -0.146855 1.614276 -34.793829 8.747762 -7.357641 47.289007 -7.891181 -17.894257 17.323340 0.000000 0.000000 0.000000 -5.461227 -0.372283 17.544280 12.406372 -1.825310 -28.313179 -4.596259 -10.005656 32.426122 2.637096 -1.539446 -12.683363 0.000000 0.000000 0.000000 -27.009493 6.326546 -5.699259 -40.701614 -0.312701 -7.051853 -25.595242 -66.978080 21.482676 0.000000 0.000000 0.000000 17.177911 0.681088 -0.221399 51.172903 -3.928370 -9.410159 15.695930 61.369872 13.464760 0.000000 0.000000 0.000000
-0.138964 1.048539 -0.936638 -8.103837 15.434842 1.838384 6.662303 -0.404337 -0.631160 -6.229142 0.317693 -3.692066 8.059694 18.564244 15.069127 0.000000 0.000000 0.000000 1.100022 2.056745 -31.785529 7.267045 -6.778427 49.567149 -6.469176 -15.730207 13.194182 0.000000 0.000000 0.000000 -6.369395 -0.198529 17.485114 11.821901 -1.684025 -28.252153 -3.859279 -9.849133 31.681326 3.813984 -2.571081 -11.933430 0.000000 0.000000 0.000000 -27.804857 6.248303 -5.728403 -40.750542 0.111440 -7.146085 -26.117856 -65.737638 21.360800 0.000000 0.000000 0.000000 16.818751 1.492553 0.153855 52.223035 -4.064783 -9.584665 13.928588 62.971143 12.797788 0.000000 0.000000 0.000000
-0.143663 1.048324 -0.947785 -7.594826 15.942729 2.301537 5.973149 -0.417564 -2.335554 -6.349896 0.312297 -3.650913 8.207985 18.965874 15.997242 0.000000 0.000000 0.000000 1.709796 2.082135 -27.652460 6.205475 -5.932130 47.153364 -5.641956 -14.141522 12.241397 0.000000 0.000000 0.000000 -6.726849 -0.184755 18.267676 11.119562 -1.505273 -28.390827 -4.026900 -9.874112 30.996395 4.633346 -3.431186 -10.091494 0.000000 0.000000 0.000000 -27.160223 6.304945 -5.803976 -41.112093 -0.317134 -6.957422 -25.234832 -64.304569 20.078631 0.000000 0.000000 0.000000 17.732734 0.334793 -0.487548 52.487710 -3.312766 -9.241127 12.657022 64.461398 12.475268 0.000000 0.000000 0.000000
-0.148072 1.047109 -0.958314 -7.562434 15.182313 3.045128 6.065329 -0.453684 -3.384261 -6.983783 0.327523 -3.999610 8.977982 19.922545 16.060079 0.000000 0.000000 0.000000 1.987215 2.069529 -24.175308 6.551406 -5.329990 43.287803 -5.740097 -14.381113 14.400623 0.000000 0.000000 0.000000 -7.617712 0.016506 17.416646 10.268031 -1.308480 -28.596678 -2.905667 -10.180151 31.836178 3.933541 -2.798819 -11.550185 0.000000 0.000000 0.000000 -27.567579 7.395115 -6.299640 -40.694088 -1.203032 -6.761902 -26.154780 -62.745724 20.290730 0.000000 0.000000 0.000000 16.343961 -0.225181 -0.857168 53.407443 -1.943010 -8.877865 14.618242 65.507855 13.956889 0.000000 0.000000 0.000000
-0.152193 1.045042 -0.968702 -7.682786 15.032107 3.421803 6.213144 -0.476769 -3.813499 -6.962908 0.293999 -4.893855 10.030127 21.387523 17.837065 0.000000 0.000000 0.000000 2.015227 1.958007 -21.683024 6.717903 -4.997623 40.670455 -6.525457 -15.745885 15.064935 0.000000 0.000000 0.000000 -8.097895 0.128013 16.090608 11.266238 -1.623997 -27.652969 -3.157934 -10.066022 31.909562 3.549885 -2.468330 -11.528854 0.000000 0.000000 0.000000 -26.741060 7.412493 -6.179825 -41.561852 -1.376760 -6.844893 -25.000059 -62.094289 19.372944 0.000000 0.000000 0.000000 15.809488 -0.286994 -0.851575 52.854761 -0.847563 -8.318453 15.187047 65.510433 14.294249 0.000000 0.000000 0.000000
